<svg width="49" height="48" viewBox="0 0 49 48" fill="none" xmlns="http://www.w3.org/2000/svg">
<path fill-rule="evenodd" clip-rule="evenodd" d="M24.5 0C10.9637 0 0 10.9637 0 24.5C0 35.3413 7.01312 44.4981 16.7519 47.7444C17.9769 47.9588 18.4363 47.2238 18.4363 46.5806C18.4363 45.9988 18.4056 44.0694 18.4056 42.0175C12.25 43.1506 10.6575 40.5169 10.1675 39.1388C9.89188 38.4344 8.6975 36.26 7.65625 35.6781C6.79875 35.2188 5.57375 34.0856 7.62563 34.055C9.555 34.0244 10.9331 35.8312 11.3925 36.5662C13.5975 40.2719 17.1194 39.2306 18.5281 38.5875C18.7425 36.995 19.3856 35.9231 20.09 35.3106C14.6388 34.6981 8.9425 32.585 8.9425 23.2138C8.9425 20.5494 9.89188 18.3444 11.4538 16.6294C11.2088 16.0169 10.3513 13.5056 11.6988 10.1369C11.6988 10.1369 13.7506 9.49375 18.4363 12.6481C20.3962 12.0969 22.4788 11.8212 24.5613 11.8212C26.6438 11.8212 28.7262 12.0969 30.6863 12.6481C35.3719 9.46313 37.4238 10.1369 37.4238 10.1369C38.7713 13.5056 37.9138 16.0169 37.6688 16.6294C39.2306 18.3444 40.18 20.5188 40.18 23.2138C40.18 32.6156 34.4531 34.6981 29.0019 35.3106C29.89 36.0763 30.6556 37.5462 30.6556 39.8431C30.6556 43.12 30.625 45.7538 30.625 46.5806C30.625 47.2238 31.0844 47.9894 32.3094 47.7444C37.173 46.1023 41.3992 42.9764 44.3933 38.8067C47.3874 34.637 48.9985 29.6333 49 24.5C49 10.9637 38.0363 0 24.5 0Z" fill="white"/>
</svg>
